<?xml version="1.0" encoding="UTF-8"?>
<!DOCTYPE svg PUBLIC "-//W3C//DTD SVG 1.1//EN" "http://www.w3.org/Graphics/SVG/1.1/DTD/svg11.dtd">
<!-- Creator: CorelDRAW -->
<svg xmlns="http://www.w3.org/2000/svg" xml:space="preserve" width="4em" height="4m" version="1.1"
          style="shape-rendering:geometricPrecision; text-rendering:geometricPrecision; image-rendering:optimizeQuality; fill-rule:evenodd; clip-rule:evenodd"
          viewBox="0 0 7111 7111" xmlns:xlink="http://www.w3.org/1999/xlink">
          <g id="Layer_x0020_1">
            <path class="fil0"
              d="M4718 6573c-256,0 -508,-61 -733,-178 -69,77 -143,149 -222,215 289,169 616,257 955,257 1043,0 1892,-849 1892,-1892 0,-1044 -849,-1893 -1892,-1893 -1044,0 -1893,849 -1893,1893 0,396 126,784 356,1104 80,-57 154,-124 221,-197 -185,-267 -283,-579 -283,-907 0,-878 712,-1598 1599,-1598 881,0 1598,717 1598,1598 0,881 -717,1598 -1598,1598zm-1248 -3734c-380,-380 -773,-773 -773,-1192 0,-270 220,-489 490,-489 175,0 287,70 369,169 81,-99 193,-169 368,-169 270,0 490,219 490,489 0,419 -393,812 -773,1192 -47,46 -124,46 -171,0zm-283 -1440c-137,0 -248,111 -248,248 0,293 300,617 617,935 316,-318 616,-642 616,-935 0,-137 -111,-248 -248,-248 -107,0 -171,30 -260,210 -45,89 -172,89 -216,0 -90,-180 -153,-210 -261,-210zm369 -616c-67,0 -121,-54 -121,-120l0 -330c0,-66 54,-120 121,-120 66,0 120,54 120,120l0 330c0,66 -54,120 -120,120zm963 258c-92,0 -152,-100 -105,-181l165 -285c33,-58 107,-77 165,-44 57,33 77,107 44,165l-165 285c-22,39 -63,60 -104,60zm-1926 0c-42,0 -83,-21 -105,-60l-165 -285c-33,-58 -13,-132 45,-165 57,-33 131,-14 164,44l165 285c47,81 -13,181 -104,181zm-1795 604l-221 -458 -457 -221c-91,-43 -91,-173 0,-217l457 -220 221 -458c44,-91 174,-91 217,0l221 458 458 220c91,44 91,174 0,218l-458 220 -221 458c-43,91 -173,90 -217,0zm-348 -787l270 130c25,12 45,32 57,56l130 270 130 -270c12,-24 31,-44 56,-56l270 -130 -270 -130c-25,-12 -44,-32 -56,-57l-130 -270 -130 270c-12,25 -32,45 -57,57l-270 130zm5645 1828l-220 -458 -458 -220c-91,-44 -91,-174 0,-218l458 -220 220 -459c44,-90 174,-90 218,0l220 459 459 220c90,44 90,174 0,218l-459 220 -220 458c-44,91 -174,91 -218,0zm-348 -787l271 130c24,12 44,32 56,56l130 271 130 -271c12,-24 32,-44 57,-56l270 -130 -270 -130c-25,-12 -45,-32 -57,-57l-130 -270 -130 270c-12,25 -32,45 -56,57l-271 130zm-1609 4303c181,85 378,130 580,130 748,0 1356,-609 1356,-1357 0,-748 -608,-1357 -1356,-1357 -207,0 -403,46 -579,129 522,743 514,1726 -1,2455zm-207 -2332c-81,58 -155,124 -221,198 185,267 282,578 282,907 0,877 -712,1598 -1598,1598 -882,0 -1599,-717 -1599,-1598 0,-881 717,-1598 1599,-1598 256,0 507,61 732,177 69,-76 143,-148 222,-214 -289,-169 -616,-258 -954,-258 -1044,0 -1893,849 -1893,1893 0,1043 849,1892 1893,1892 1043,0 1892,-849 1892,-1892 0,-396 -125,-785 -355,-1105zm-375 -685c335,-218 734,-344 1162,-344 1176,0 2134,957 2134,2134 0,1176 -958,2134 -2134,2134 -417,0 -817,-119 -1163,-345 -335,218 -734,345 -1161,345 -1177,0 -2134,-958 -2134,-2134 0,-1177 957,-2134 2134,-2134 416,0 816,118 1162,344zm0 1089c-258,427 -262,970 -1,1401 258,-427 263,-969 1,-1401zm-583 -527c-180,-85 -378,-129 -579,-129 -749,0 -1357,609 -1357,1357 0,748 608,1357 1357,1357 206,0 402,-47 578,-130 -522,-742 -514,-1725 1,-2455z" />
          </g>
        </svg>
